Coordinates
version=1
nRows=18
nColumns=34
inDegrees=no

Units are S.I. units (second, meters, Newtons, ...)
If the header above contains a line with 'inDegrees', this indicates whether rotational values are in degrees (yes) or radians (no).

endheader
time	pelvis_tilt	pelvis_list	pelvis_rotation	pelvis_tx	pelvis_ty	pelvis_tz	hip_flexion_r	hip_adduction_r	hip_rotation_r	knee_angle_r	ankle_angle_r	subtalar_angle_r	mtp_angle_r	hip_flexion_l	hip_adduction_l	hip_rotation_l	knee_angle_l	ankle_angle_l	subtalar_angle_l	mtp_angle_l	lumbar_extension	lumbar_bending	lumbar_rotation	arm_flex_r	arm_add_r	arm_rot_r	elbow_flex_r	pro_sup_r	arm_flex_l	arm_add_l	arm_rot_l	elbow_flex_l	pro_sup_l
0.46	-0.0211807	-0.0573559	0.0379003	0.360297	0.954906	-0.181681	-0.0500315	0.122187	-0.307352	0.130588	0.3381	0.306534	-0.0100028	0.52104	-0.0840717	-0.110313	0.501847	0.119495	0.0834942	-0.0100371	-0.165039	-0.000310922	0.0668101	0.192519	-0.378637	0.284516	0.921903	1.82163	-0.17156	-0.214107	0.0603548	0.515904	1.82119
0.47	-0.0177527	-0.0567246	0.0325021	0.37305	0.953165	-0.181428	-0.073408	0.121537	-0.318282	0.124601	0.353221	0.335381	-0.00999959	0.513805	-0.0824259	-0.136178	0.435788	0.130929	0.140609	-0.0100338	-0.168876	-0.00130745	0.0704049	0.2126	-0.384801	0.287619	0.936618	1.82192	-0.188135	-0.215308	0.0500967	0.521428	1.81343
0.48	-0.0143446	-0.0559434	0.0278047	0.385838	0.951241	-0.181328	-0.0953578	0.119782	-0.3305	0.121674	0.369353	0.363782	-0.0099964	0.506916	-0.0796306	-0.162547	0.373887	0.14229	0.199347	-0.0100306	-0.172688	-0.00220132	0.0729901	0.231873	-0.390091	0.28892	0.951298	1.82239	-0.203715	-0.216335	0.041161	0.526079	1.80675
0.49	-0.0110503	-0.0547803	0.023737	0.398667	0.949166	-0.181383	-0.11556	0.116604	-0.343595	0.122243	0.386524	0.391097	-0.00999321	0.500708	-0.0754892	-0.188433	0.317448	0.153549	0.257328	-0.0100274	-0.176394	-0.00325464	0.0746766	0.250131	-0.394541	0.288442	0.966069	1.82299	-0.218092	-0.217202	0.0336879	0.529558	1.80102
0.5	-0.00797296	-0.0530383	0.0201853	0.411549	0.946972	-0.181587	-0.133771	0.111798	-0.356868	0.126555	0.404601	0.416388	-0.00999002	0.495431	-0.0699823	-0.21287	0.267653	0.1646	0.311926	-0.0100241	-0.179883	-0.00471525	0.075638	0.267116	-0.398189	0.286208	0.981061	1.82365	-0.231078	-0.217931	0.027722	0.531601	1.79611
0.51	-0.00521679	-0.050587	0.0170048	0.424506	0.944691	-0.181918	-0.149849	0.105317	-0.369343	0.134614	0.423267	0.438454	-0.00998683	0.491263	-0.0632935	-0.23506	0.225534	0.175203	0.360573	-0.0100209	-0.183014	-0.00678373	0.0760984	0.282521	-0.401069	0.28224	0.996402	1.8243	-0.242523	-0.218539	0.0231942	0.531999	1.79188
0.52	-0.00287638	-0.0473786	0.0140339	0.437562	0.942354	-0.182347	-0.163772	0.0972943	-0.379848	0.146184	0.442022	0.455942	-0.00998364	0.488317	-0.0557911	-0.254497	0.19193	0.184938	0.401048	-0.0100176	-0.185631	-0.00959398	0.076309	0.29601	-0.403206	0.276571	1.0122	1.82483	-0.252326	-0.219044	0.0199144	0.530608	1.78826
0.53	-0.00102363	-0.0434423	0.0111127	0.450747	0.93999	-0.182835	-0.175629	0.0880146	-0.387169	0.160828	0.460221	0.467525	-0.00998045	0.486638	-0.0479619	-0.271	0.167422	0.193164	0.431682	-0.0100144	-0.187586	-0.0132116	0.0765184	0.307237	-0.404615	0.269256	1.02854	1.82512	-0.260447	-0.219454	0.017581	0.527367	1.78522
0.54	0.000302206	-0.0388606	0.00810359	0.464089	0.937624	-0.183345	-0.185586	0.0778484	-0.390237	0.178012	0.477134	0.472113	-0.00997727	0.486208	-0.0403085	-0.284659	0.152259	0.199023	0.451444	-0.0100112	-0.188758	-0.017648	0.0769368	0.315887	-0.405301	0.260399	1.04545	1.82503	-0.26691	-0.21977	0.0158064	0.522306	1.78282
0.55	0.00110025	-0.0337353	0.00490851	0.477615	0.935276	-0.183844	-0.19385	0.0671665	-0.388312	0.197219	0.492004	0.469047	-0.00997408	0.486932	-0.0332345	-0.2957	0.146281	0.201493	0.459921	-0.0100079	-0.189073	-0.0228851	0.077702	0.321708	-0.405262	0.250174	1.06289	1.82444	-0.271792	-0.219981	0.0141585	0.515545	1.7811
0.56	0.00141575	-0.0281413	0.00148425	0.491345	0.932997	-0.184319	-0.200608	0.0562547	-0.381127	0.218066	0.504099	0.458238	-0.00997089	0.488637	-0.0269497	-0.304339	0.148875	0.199523	0.457228	-0.0100047	-0.188517	-0.0288993	0.0788531	0.324552	-0.404495	0.238845	1.08073	1.82319	-0.27522	-0.220071	0.012213	0.507301	1.78015
0.57	0.00132812	-0.0221091	-0.00215174	0.505286	0.930825	-0.184762	-0.205992	0.0452444	-0.368943	0.240395	0.512736	0.440214	-0.00996771	0.491079	-0.0214138	-0.310676	0.159003	0.192226	0.443924	-0.0100014	-0.187143	-0.0356896	0.0803151	0.324397	-0.403004	0.226769	1.09874	1.82121	-0.277355	-0.220023	0.00961404	0.497872	1.77998
0.58	0.000943807	-0.0156065	-0.00592118	0.519435	0.9288	-0.185184	-0.210039	0.0340849	-0.35253	0.264315	0.51728	0.416072	-0.00996453	0.493968	-0.0163433	-0.314681	0.175313	0.179118	0.42096	-0.0099982	-0.185067	-0.043286	0.0819029	0.321355	-0.400794	0.214384	1.1166	1.81846	-0.278374	-0.219828	0.00613391	0.48763	1.78056
0.59	0.000379788	-0.00854786	-0.00969368	0.533777	0.926961	-0.185608	-0.212669	0.0225626	-0.333028	0.290191	0.517112	0.387315	-0.00996134	0.497001	-0.0112737	-0.316244	0.1963	0.160325	0.389659	-0.00999496	-0.182452	-0.0517433	0.0833439	0.315663	-0.39788	0.202173	1.13387	1.815	-0.278457	-0.219502	0.00172319	0.477002	1.78176
0.6	-0.00025616	-0.000822175	-0.0133036	0.548285	0.925345	-0.186062	-0.213677	0.0103622	-0.311752	0.31859	0.511583	0.355603	-0.00995816	0.499909	-0.00565949	-0.315265	0.220487	0.136715	0.351685	-0.00999173	-0.179487	-0.0611219	0.0843168	0.307654	-0.394285	0.190625	1.15008	1.81097	-0.277763	-0.219089	-0.00346282	0.466446	1.78334
0.61	-0.000885507	0.00767165	-0.0165716	0.56292	0.923986	-0.186578	-0.212725	-0.00285135	-0.289966	0.350192	0.499983	0.322491	-0.00995498	0.50248	0.00101713	-0.311734	0.246577	0.10989	0.30896	-0.0099885	-0.176352	-0.0714592	0.0844995	0.297712	-0.390044	0.180181	1.16473	1.80664	-0.27642	-0.218664	-0.00907194	0.456427	1.78506
0.62	-0.00147809	0.0169952	-0.0193296	0.577637	0.92291	-0.187183	-0.20936	-0.0173528	-0.268701	0.385693	0.481544	0.289206	-0.0099518	0.504571	0.00915772	-0.305768	0.273513	0.0820107	0.263541	-0.00998526	-0.173192	-0.0827448	0.0836165	0.286235	-0.385204	0.171201	1.17736	1.80232	-0.274514	-0.218328	-0.0146007	0.447389	1.78665
0.63	-0.00206463	0.0271538	-0.021447	0.592383	0.922137	-0.187898	-0.203032	-0.0333001	-0.248629	0.425705	0.455506	0.256516	-0.00994862	0.506097	0.0189925	-0.297643	0.300479	0.0555114	0.217473	-0.00998203	-0.170085	-0.0949081	0.0814806	0.273595	-0.379827	0.163935	1.18755	1.79836	-0.272078	-0.218194	-0.01947	0.439728	1.7879
